<svg width="14" height="9" viewBox="0 0 14 9" fill="none" xmlns="http://www.w3.org/2000/svg">
<g clip-path="url(#clip0_1_50)">
<path d="M0 0H14V9.00011H0V0Z" fill="#F9F9F9"/>
<path d="M7.875 -0.00012207H6.125V3.65611H0V5.34362H6.125V8.99985H7.875V5.34362H14V3.65611H7.875V-0.00012207Z" fill="#D80027"/>
<path d="M10.7676 6.06512L14 7.79682V6.06512H10.7676ZM8.52174 6.06512L14 8.9999V8.17002L10.0709 6.06512H8.52174ZM12.5408 8.9999L8.52174 6.84665V8.9999H12.5408Z" fill="#0052B4"/>
<path d="M8.52174 6.06512L14 8.9999V8.17002L10.0709 6.06512H8.52174Z" fill="#F9F9F9"/>
<path d="M8.52174 6.06512L14 8.9999V8.17002L10.0709 6.06512H8.52174Z" fill="#D80027"/>
<path d="M2.47026 6.06506L0 7.38843V6.06506H2.47026ZM5.47827 6.43827V8.99987H0.69702L5.47827 6.43827Z" fill="#0052B4"/>
<path d="M3.92911 6.06512L0 8.17002V8.9999L5.47827 6.06512H3.92911Z" fill="#D80027"/>
<path d="M3.23244 2.93465L0 1.20296V2.93465H3.23244ZM5.47827 2.93465L0 -0.00012207V0.82976L3.92911 2.93465H5.47827ZM1.45923 -0.00012207L5.47827 2.15313V-0.00012207H1.45923Z" fill="#0052B4"/>
<path d="M5.47827 2.93465L0 -0.00012207V0.82976L3.92911 2.93465H5.47827Z" fill="#F9F9F9"/>
<path d="M5.47827 2.93465L0 -0.00012207V0.82976L3.92911 2.93465H5.47827Z" fill="#D80027"/>
<path d="M11.5297 2.93476L14 1.61139V2.93476H11.5297ZM8.52174 2.56156V-4.57764e-05H13.303L8.52174 2.56156Z" fill="#0052B4"/>
<path d="M10.0709 2.9347L14 0.829805V-7.62939e-05L8.52174 2.9347H10.0709Z" fill="#D80027"/>
</g>
<defs>
<clipPath id="clip0_1_50">
<rect width="14" height="9" rx="2" fill="white"/>
</clipPath>
</defs>
</svg>
